HIERARCHY
ROOT pelvis
{
  OFFSET 0 100 0
  CHANNELS 6 Xposition Yposition Zposition Zrotation Xrotation Yrotation
  JOINT pelvis_right_femur
  {
    OFFSET -10.78128 -3.44521 -0.5502486
    CHANNELS 3 Zrotation Xrotation Yrotation
    JOINT right_femur_tibia
    {
      OFFSET -0.8047443 -44.0398 -0.1307829
      CHANNELS 3 Zrotation Xrotation Yrotation
      JOINT right_tibia_foot
      {
        OFFSET 3.006224 -47.83518 -5
        CHANNELS 3 Zrotation Xrotation Yrotation
        End Site
        {
          OFFSET 0 -5 15
        }
      }
    }
  }
  JOINT pelvis_left_femur
  {
    OFFSET 10.78128 -3.44521 -0.5502486
    CHANNELS 3 Zrotation Xrotation Yrotation
    JOINT left_femur_tibia
    {
      OFFSET 0.8047443 -44.0398 -0.1307829
      CHANNELS 3 Zrotation Xrotation Yrotation
      JOINT left_tibia_foot
      {
        OFFSET -4.370144 -48.10324 -4.275266
        CHANNELS 3 Zrotation Xrotation Yrotation
        End Site
        {
          OFFSET 0 -5 15
        }
      }
    }
  }
  JOINT pelvis_spine1
  {
    OFFSET 0 6.468898 -3.129235
    CHANNELS 3 Zrotation Xrotation Yrotation
    JOINT spine1
    {
      OFFSET 0 23.15396 4.99043
      CHANNELS 3 Zrotation Xrotation Yrotation
      JOINT spine2
      {
        OFFSET 0 20.79997 -5.064912
        CHANNELS 3 Zrotation Xrotation Yrotation
        JOINT neck
        {
          OFFSET 0 14.38658 9.616178
          CHANNELS 3 Zrotation Xrotation Yrotation
          End Site
          {
            OFFSET 0 20 0
          }
        }
      }
      JOINT right_manubrium
      {
        OFFSET -5.722621 16.35077 3.967754
        CHANNELS 3 Zrotation Xrotation Yrotation
        JOINT right_clavicle
        {
          OFFSET -13.16364 1.694482 -4.693211
          CHANNELS 3 Zrotation Xrotation Yrotation
          JOINT right_humerus
          {
            OFFSET -28.5034 -0.3100689 -2.792744
            CHANNELS 3 Zrotation Xrotation Yrotation
            JOINT right_radius
            {
              OFFSET -25.15693 0.02248979 -1.271978
              CHANNELS 3 Zrotation Xrotation Yrotation
              End Site
              {
                OFFSET -15 0 0
              }
            }
          }
        }
      }
      JOINT left_manubrium
      {
        OFFSET 5.722621 16.35077 3.967754
        CHANNELS 3 Zrotation Xrotation Yrotation
        JOINT left_clavicle
        {
          OFFSET 13.16364 1.694482 -4.693211
          CHANNELS 3 Zrotation Xrotation Yrotation
          JOINT left_humerus
          {
            OFFSET 29.39168 -1.063119 -2.237045
            CHANNELS 3 Zrotation Xrotation Yrotation
            JOINT left_radius
            {
              OFFSET 24.59957 -0.9528479 0.9047498
              CHANNELS 3 Zrotation Xrotation Yrotation
              End Site
              {
                OFFSET 15 -0 -0
              }
            }
          }
        }
      }
    }
  }
}
MOTION
Frames: 13
Frame Time: 0.0416666666667
0 103.5113 0 2.205832 -1.129791 0.2787813 1.187826 -10.02349 8.648925 -0 33.67433 -0 -5.263662 -17.81913 -2.173574 -8.061307 10.06562 -23.42768 -0 5.293373 -0 7.62893 -16.14452 26.4779 -4.352627 -5.06458 4.982376 2.028628 9.197134 -7.730232 0.845968 22.78862 7.167341 3.266682 -23.10532 8.794188 6.355813 -19.72659 11.56656 86.33556 35.94854 -19.81353 -0 0 16.21297 -7.584512 8.255682 4.622536 5.522687 -19.48647 -1.698104 -94.77037 29.74818 22.87006 0 0 -16.02838 3.493794 17.89033 9.55754
0.3572227 103.4515 1.443659 2.108332 -0.8950876 0.4813138 1.337702 -10.79371 8.40775 -0 31.9684 -0 -5.30671 -17.20628 -1.887158 -7.976854 10.14517 -23.16527 -0 5.679771 -0 7.390167 -16.35889 26.11033 -4.3068 -4.911224 4.973266 2.114179 9.138228 -7.727967 0.884301 22.65594 7.171467 3.315848 -23.23336 8.796338 6.307533 -19.6102 11.54644 86.37819 35.93146 -19.90045 -0 0 16.03912 -7.637973 8.313131 4.656065 5.619029 -19.53977 -1.703375 -94.65177 29.70835 22.63687 0 0 -16.33192 3.528607 17.77716 9.534596
0.7375843 103.3485 3.054376 1.984784 -0.5658666 0.6610068 1.516934 -11.75633 8.065006 -0 29.45874 -0 -5.36887 -16.35733 -1.459851 -7.873784 10.23632 -22.77658 -0 6.310751 -0 7.028716 -16.61147 25.55802 -4.241084 -4.717018 4.967497 2.223697 9.055735 -7.720728 0.9357289 22.47698 7.174701 3.382794 -23.40006 8.793354 6.234487 -19.43829 11.51614 86.45245 35.90717 -20.02756 -0 0 15.78231 -7.7161 8.399014 4.704919 5.746892 -19.61654 -1.707303 -94.48267 29.64509 22.31347 0 0 -16.73914 3.573505 17.61516 9.501806
1.144981 103.195 4.883333 1.848265 -0.156113 0.8269842 1.701713 -12.80238 7.634121 -0 26.21118 -0 -5.452347 -15.3199 -0.9004619 -7.763498 10.31847 -22.26794 -0 7.213884 -0 6.544656 -16.85881 24.82548 -4.156644 -4.500492 4.969267 2.346925 8.954002 -7.706495 0.9962955 22.26386 7.175455 3.463117 -23.59067 8.78165 6.137811 -19.21459 11.47683 86.56124 35.87653 -20.19017 -0 0 15.44787 -7.81828 8.512762 4.76874 5.895647 -19.71343 -1.708299 -94.27019 29.55632 21.91803 0 0 -17.2209 3.624263 17.40924 9.460997
1.582414 102.9879 6.97535 1.708055 0.3133318 0.9897669 1.875077 -13.82568 7.132584 -0 22.35071 -0 -5.562107 -14.15226 -0.2290971 -7.652701 10.3611 -21.65007 -0 8.420555 -0 5.940577 -17.05101 23.92419 -4.052983 -4.275864 4.982455 2.474834 8.838901 -7.683463 1.061266 22.02939 7.172212 3.551671 -23.79024 8.757232 6.020989 -18.94594 11.43175 86.70227 35.84071 -20.37882 -0 0 15.04542 -7.945524 8.653676 4.848357 6.052746 -19.82439 -1.706175 -94.02398 29.43972 21.47295 0 0 -17.7463 3.676718 17.16421 9.415614
2.051619 102.7309 9.365923 1.57096 0.8106024 1.157079 2.02592 -14.69696 6.584848 -0 18.07861 -0 -5.705046 -12.93396 0.5207605 -7.543312 10.31207 -20.9371 -0 9.989442 -0 5.218684 -17.11723 22.87067 -3.926525 -4.05493 5.011988 2.597975 8.718851 -7.649291 1.12399 21.78938 7.163041 3.641606 -23.98049 8.714053 5.890415 -18.64237 11.38703 86.86772 35.80195 -20.57734 -0 0 14.58878 -8.10201 8.821841 4.946804 6.200608 -19.93909 -1.702316 -93.75723 29.29179 21.00848 0 0 -18.27705 3.72577 16.88418 9.371966
2.552452 102.4381 12.07898 1.442861 1.291997 1.330043 2.148561 -15.25074 6.023126 -0 13.67023 -0 -5.887816 -11.76906 1.303277 -7.432344 10.09319 -20.14524 -0 12.01796 -0 4.380528 -16.95944 21.68565 -3.770173 -3.848544 5.064597 2.705528 8.605034 -7.600674 1.175495 21.56368 7.145322 3.724038 -24.1383 8.643209 5.75521 -18.31655 11.35169 87.04494 35.76388 -20.76259 -0 0 14.09519 -8.295719 9.018605 5.069746 6.315412 -20.04256 -1.69957 -93.48649 29.10747 20.56366 0 0 -18.76515 3.764923 16.57217 9.339576
3.082516 102.1371 15.1265 1.329453 1.709677 1.501264 2.242945 -15.31255 5.482581 -0 9.426418 -0 -6.113198 -10.76879 2.068381 -7.312427 9.616212 -19.29135 -0 14.61446 -0 3.432968 -16.47165 20.39664 -3.575753 -3.666106 5.147636 2.786573 8.509494 -7.533966 1.206172 21.37318 7.116155 3.789541 -24.23929 8.534844 5.625309 -17.9824 11.33566 87.2187 35.73083 -20.90836 -0 0 13.58351 -8.536511 9.245691 5.224156 6.371612 -20.11824 -1.701434 -93.2289 28.88158 20.17986 0 0 -19.16042 3.787456 16.23058 9.329011
3.637381 101.8663 18.51013 1.236335 2.024547 1.65608 2.312949 -14.75139 4.992355 -0 5.594729 -0 -6.376937 -10.02153 2.774417 -7.173923 8.810176 -18.39143 -0 17.84087 -0 2.396652 -15.5779 19.04218 -3.338832 -3.513609 5.266912 2.832702 8.441931 -7.446221 1.208905 21.23428 7.073209 3.830847 -24.26431 8.381874 5.508379 -17.65364 11.34648 87.37357 35.70626 -20.99068 -0 0 13.07289 -8.833076 9.503386 5.416155 6.350454 -20.15313 -1.71055 -92.99779 28.61115 19.88981 0 0 -19.42459 3.7886 15.86219 9.34811
4.211355 101.668 22.22293 1.16974 2.213225 1.77624 2.361389 -13.50861 4.569001 -0 2.319143 -0 -6.666294 -9.575827 3.39635 -7.007904 7.632148 -17.45913 -0 21.66466 -0 1.310495 -14.26074 17.67559 -3.063385 -3.392127 5.426251 2.839103 8.40789 -7.335079 1.181216 21.15605 7.015092 3.844521 -24.20245 8.182332 5.407588 -17.34475 11.38735 87.49232 35.69177 -20.98711 -0 0 12.58499 -9.192876 9.789354 5.650689 6.246167 -20.14116 -1.727202 -92.79972 28.29654 19.71083 0 0 -19.54034 3.766771 15.47074 9.399546
4.798726 101.5783 26.24927 1.138488 2.266078 1.844446 2.383682 -11.58988 4.214791 0 -0.365594 0 -6.958527 -9.443298 3.927377 -6.808548 6.053521 -16.50471 -0 25.93033 -0 0.2319267 -12.57276 16.36902 -2.765701 -3.297165 5.629487 2.803401 8.409099 -7.197103 1.125817 21.14107 6.940929 3.830915 -24.04883 7.939384 5.320713 -17.07493 11.45689 87.54919 35.68718 -20.86825 -0 0 12.15073 -9.626246 10.09839 5.933862 6.068062 -20.0834 -1.748153 -92.63391 27.94079 19.64494 0 0 -19.51243 3.723366 15.06093 9.480529
5.395416 101.615 30.56276 1.155827 2.181934 1.848776 2.363952 -9.043443 3.919623 0 -2.51814 0 -7.219267 -9.60952 4.377448 -6.573914 4.039966 -15.53463 -0 30.3481 -0 -0.7667892 -10.63762 15.21434 -2.476767 -3.218696 5.882845 2.723856 8.444633 -7.02596 1.050282 21.18776 6.849697 3.793366 -23.80073 7.660302 5.240134 -16.8723 11.54986 87.50313 35.69079 -20.58834 -0 0 11.81702 -10.15106 10.4225 6.275724 5.840133 -19.98696 -1.766085 -92.49286 27.54851 19.68195 0 0 -19.36486 3.661983 14.63803 9.583544
6.000523 101.7694 35.12461 1.23791 1.964525 1.785991 2.278145 -5.942492 3.66687 0 -4.260003 0 -7.406011 -10.04362 4.768945 -6.304281 1.549167 -14.55215 -0 34.53324 -0 -1.611695 -8.630486 14.30969 -2.238295 -3.143116 6.194651 2.598779 8.511868 -6.812919 0.9655354 21.29205 6.740139 3.737143 -23.45624 7.354994 5.154575 -16.7718 11.65844 87.30136 35.69921 -20.08841 -0 0 11.64298 -10.79153 10.75153 6.68977 5.596388 -19.86299 -1.770887 -92.36458 27.12511 19.80386 0 0 -19.13436 3.587409 14.20759 9.698088
